<svg width="32" height="32" viewBox="0 0 32 32" fill="none" xmlns="http://www.w3.org/2000/svg">
<path d="M19 13.5H23" stroke="black" stroke-width="2" stroke-linecap="round" stroke-linejoin="round"/>
<path d="M9 13.5H13" stroke="black" stroke-width="2" stroke-linecap="round" stroke-linejoin="round"/>
<path d="M11 11.5V15.5" stroke="black" stroke-width="2" stroke-linecap="round" stroke-linejoin="round"/>
<path d="M21.5 6.96252L10.5 7.00002C8.97218 7.00293 7.49401 7.5429 6.32406 8.52548C5.15411 9.50805 4.36685 10.8707 4.1 12.375V12.375L2.05 22.8875C1.91837 23.6216 2.02469 24.3786 2.35346 25.0481C2.68222 25.7175 3.21624 26.2644 3.87765 26.6091C4.53905 26.9537 5.29327 27.0781 6.03031 26.9641C6.76736 26.85 7.44871 26.5035 7.975 25.975V25.975L13.375 20L21.5 19.9625C23.2239 19.9625 24.8772 19.2777 26.0962 18.0587C27.3152 16.8397 28 15.1864 28 13.4625C28 11.7386 27.3152 10.0853 26.0962 8.86633C24.8772 7.64734 23.2239 6.96252 21.5 6.96252V6.96252Z" stroke="black" stroke-width="2" stroke-linecap="round" stroke-linejoin="round"/>
<path d="M27.9 12.3375L29.95 22.8875C30.0816 23.6216 29.9753 24.3786 29.6465 25.0481C29.3178 25.7175 28.7838 26.2644 28.1224 26.6091C27.4609 26.9537 26.7067 27.0781 25.9697 26.9641C25.2326 26.85 24.5513 26.5035 24.025 25.975V25.975L18.625 19.975" stroke="black" stroke-width="2" stroke-linecap="round" stroke-linejoin="round"/>
</svg>
