<svg width="24" height="25" viewBox="0 0 24 25" fill="none" xmlns="http://www.w3.org/2000/svg">
<path d="M15 23V17C15 16.7348 14.8946 16.4805 14.7071 16.2929C14.5196 16.1054 14.2652 16 14 16H10C9.73478 16 9.48043 16.1054 9.29289 16.2929C9.10536 16.4805 9 16.7348 9 17V23C9 23.2652 8.89464 23.5196 8.70711 23.7071C8.51957 23.8947 8.26522 24 8 24H2C1.73478 24 1.48043 23.8947 1.29289 23.7071C1.10536 23.5196 1 23.2652 1 23V11.4375C1.00224 11.2991 1.03215 11.1626 1.08796 11.0359C1.14378 10.9093 1.22437 10.7951 1.325 10.7L11.325 1.61252C11.5093 1.44387 11.7501 1.35034 12 1.35034C12.2499 1.35034 12.4907 1.44387 12.675 1.61252L22.675 10.7C22.7756 10.7951 22.8562 10.9093 22.912 11.0359C22.9679 11.1626 22.9978 11.2991 23 11.4375V23C23 23.2652 22.8946 23.5196 22.7071 23.7071C22.5196 23.8947 22.2652 24 22 24H16C15.7348 24 15.4804 23.8947 15.2929 23.7071C15.1054 23.5196 15 23.2652 15 23Z" stroke="black" stroke-width="2" stroke-linecap="round" stroke-linejoin="round"/>
</svg>
