<svg width="241" height="36" viewBox="0 0 241 36" fill="none" xmlns="http://www.w3.org/2000/svg">
<path d="M25.104 34.36C23.6533 32.3973 21.968 30.2 20.048 27.768C18.1707 25.336 16.2293 22.8613 14.224 20.344C12.2187 17.784 10.2773 15.3093 8.4 12.92C6.56533 10.5307 4.92267 8.41866 3.472 6.584V33.4C3.472 33.8267 3.32267 34.2107 3.024 34.552C2.72533 34.8507 2.34133 35 1.872 35C1.44533 35 1.06133 34.8507 0.72 34.552C0.421334 34.2107 0.272 33.8267 0.272 33.4V2.36C0.272 1.89066 0.421334 1.50667 0.72 1.208C1.06133 0.909332 1.424 0.759998 1.808 0.759998C2.66133 0.759998 3.23733 0.973331 3.536 1.4C4.60267 2.808 5.98933 4.62133 7.696 6.84C9.40267 9.016 11.2587 11.4053 13.264 14.008C15.312 16.568 17.36 19.1707 19.408 21.816C21.4987 24.4187 23.4187 26.872 25.168 29.176V2.36C25.168 1.89066 25.3173 1.50667 25.616 1.208C25.9573 0.909332 26.3413 0.759998 26.768 0.759998C27.2373 0.759998 27.6213 0.909332 27.92 1.208C28.2187 1.50667 28.368 1.89066 28.368 2.36V33.4C28.368 33.8267 28.2187 34.2107 27.92 34.552C27.6213 34.8507 27.2587 35 26.832 35C25.9787 35 25.4027 34.7867 25.104 34.36ZM42.497 35C42.0703 35 41.6863 34.8507 41.345 34.552C41.0463 34.2107 40.897 33.8267 40.897 33.4V2.36C40.897 1.89066 41.0463 1.50667 41.345 1.208C41.6863 0.909332 42.0703 0.759998 42.497 0.759998H60.737C61.2063 0.759998 61.5903 0.909332 61.889 1.208C62.1877 1.50667 62.337 1.89066 62.337 2.36C62.337 2.78667 62.1877 3.17067 61.889 3.512C61.5903 3.81067 61.2063 3.96 60.737 3.96H44.097V16.312H57.473C57.9423 16.312 58.3263 16.4613 58.625 16.76C58.9237 17.0587 59.073 17.4427 59.073 17.912C59.073 18.3387 58.9237 18.7227 58.625 19.064C58.3263 19.3627 57.9423 19.512 57.473 19.512H44.097V33.4C44.097 33.8267 43.9477 34.2107 43.649 34.552C43.3503 34.8507 42.9663 35 42.497 35ZM82.344 35C81.9173 35 81.5333 34.8507 81.192 34.552C80.8933 34.2107 80.744 33.8267 80.744 33.4V3.96H68.776C68.3493 3.96 67.9653 3.81067 67.624 3.512C67.3253 3.17067 67.176 2.78667 67.176 2.36C67.176 1.89066 67.3253 1.50667 67.624 1.208C67.9653 0.909332 68.3493 0.759998 68.776 0.759998H96.168C96.6373 0.759998 97.0213 0.909332 97.32 1.208C97.6187 1.50667 97.768 1.89066 97.768 2.36C97.768 2.78667 97.6187 3.17067 97.32 3.512C97.0213 3.81067 96.6373 3.96 96.168 3.96H83.944V33.4C83.944 33.8267 83.7947 34.2107 83.496 34.552C83.1973 34.8507 82.8133 35 82.344 35Z" fill="black"/>
<path d="M129.25 5.048C127.159 3.93867 124.514 3.384 121.314 3.384C118.754 3.384 116.386 4.00267 114.21 5.24C112.076 6.47733 110.348 8.20533 109.026 10.424C107.703 12.6 107.042 15.16 107.042 18.104C107.042 20.792 107.618 23.224 108.77 25.4C109.922 27.5333 111.586 29.24 113.762 30.52C115.98 31.7573 118.626 32.376 121.698 32.376C123.234 32.376 124.663 32.2267 125.986 31.928C127.351 31.6293 128.567 31.2027 129.634 30.648C129.847 30.52 130.082 30.456 130.338 30.456C130.807 30.456 131.191 30.6053 131.49 30.904C131.788 31.2027 131.938 31.5867 131.938 32.056C131.938 32.7387 131.639 33.208 131.042 33.464C129.762 34.1467 128.332 34.6587 126.754 35C125.175 35.384 123.49 35.576 121.698 35.576C117.943 35.576 114.722 34.808 112.034 33.272C109.388 31.736 107.362 29.6453 105.954 27C104.546 24.3547 103.842 21.3893 103.842 18.104C103.842 14.52 104.652 11.384 106.274 8.696C107.895 6.008 110.028 3.91733 112.674 2.424C115.319 0.930665 118.199 0.183998 121.314 0.183998C125.154 0.183998 128.311 0.866665 130.786 2.232C131.34 2.57333 131.618 3.04267 131.618 3.64C131.618 4.024 131.468 4.38666 131.17 4.728C130.871 5.06933 130.487 5.24 130.018 5.24C129.762 5.24 129.506 5.176 129.25 5.048ZM168.507 35C167.782 35 167.292 34.6587 167.036 33.976C166.609 32.824 166.097 31.544 165.5 30.136C164.902 28.728 164.262 27.256 163.58 25.72H145.532C144.934 27.256 144.358 28.728 143.804 30.136C143.292 31.5013 142.822 32.76 142.396 33.912C142.268 34.2533 142.054 34.5307 141.756 34.744C141.457 34.9147 141.137 35 140.796 35C140.412 35 140.049 34.8507 139.708 34.552C139.409 34.2107 139.26 33.8053 139.26 33.336C139.26 33.208 139.281 33.0373 139.324 32.824C139.409 32.568 139.601 32.0773 139.9 31.352C140.625 29.432 141.478 27.2347 142.46 24.76C143.484 22.2853 144.572 19.704 145.724 17.016C146.876 14.328 148.049 11.6187 149.244 8.888C150.438 6.15733 151.59 3.576 152.7 1.144C152.998 0.503998 153.51 0.183998 154.236 0.183998H154.492C155.26 0.183998 155.772 0.482665 156.028 1.08C157.18 3.55466 158.396 6.22133 159.676 9.08C160.998 11.9387 162.278 14.776 163.516 17.592C164.753 20.3653 165.884 22.968 166.908 25.4C167.932 27.7893 168.764 29.7733 169.404 31.352C169.745 32.12 169.937 32.632 169.979 32.888C170.065 33.144 170.108 33.3147 170.108 33.4C170.108 33.8267 169.937 34.2107 169.596 34.552C169.297 34.8507 168.934 35 168.507 35ZM162.236 22.52C160.998 19.6613 159.697 16.7387 158.332 13.752C156.966 10.7653 155.644 7.928 154.364 5.24C153.169 7.97066 151.91 10.8293 150.588 13.816C149.308 16.76 148.07 19.6613 146.876 22.52H162.236ZM203.009 35C202.539 35 202.134 34.808 201.793 34.424L191.361 22.264H182.785V33.4C182.785 33.8267 182.635 34.2107 182.337 34.552C182.038 34.8507 181.654 35 181.185 35C180.758 35 180.374 34.8507 180.033 34.552C179.734 34.2107 179.585 33.8267 179.585 33.4V2.36C179.585 1.89066 179.734 1.50667 180.033 1.208C180.374 0.909332 180.758 0.759998 181.185 0.759998H190.593C193.11 0.759998 195.265 1.22933 197.057 2.168C198.891 3.10667 200.299 4.38667 201.281 6.008C202.305 7.58667 202.817 9.42133 202.817 11.512C202.817 13.816 202.177 15.9067 200.897 17.784C199.659 19.6613 197.718 20.9627 195.073 21.688L204.225 32.376C204.481 32.632 204.609 32.9733 204.609 33.4C204.609 33.784 204.459 34.1467 204.161 34.488C203.862 34.8293 203.478 35 203.009 35ZM182.785 3.96V19.064H190.593C193.537 19.064 195.777 18.3387 197.313 16.888C198.849 15.3947 199.617 13.6027 199.617 11.512C199.617 9.25067 198.763 7.43733 197.057 6.072C195.393 4.664 193.238 3.96 190.593 3.96H182.785ZM225.282 35C224.855 35 224.471 34.8507 224.13 34.552C223.831 34.2107 223.682 33.8267 223.682 33.4V3.96H211.714C211.287 3.96 210.903 3.81067 210.562 3.512C210.263 3.17067 210.114 2.78667 210.114 2.36C210.114 1.89066 210.263 1.50667 210.562 1.208C210.903 0.909332 211.287 0.759998 211.714 0.759998H239.106C239.575 0.759998 239.959 0.909332 240.257 1.208C240.556 1.50667 240.706 1.89066 240.706 2.36C240.706 2.78667 240.556 3.17067 240.257 3.512C239.959 3.81067 239.575 3.96 239.106 3.96H226.882V33.4C226.882 33.8267 226.732 34.2107 226.434 34.552C226.135 34.8507 225.751 35 225.282 35Z" fill="#EB5E28"/>
</svg>
